<svg width="104" height="104" viewBox="0 0 104 104" fill="none" xmlns="http://www.w3.org/2000/svg">
<mask id="mask0_1_39" style="mask-type:luminance" maskUnits="userSpaceOnUse" x="8" y="8" width="88" height="88">
<path fill-rule="evenodd" clip-rule="evenodd" d="M8.66846 8.66797H95.1601V95.1171H8.66846V8.66797Z" fill="white"/>
</mask>
<g mask="url(#mask0_1_39)">
<path fill-rule="evenodd" clip-rule="evenodd" d="M33.1518 15.167C22.2275 15.167 15.1685 22.6507 15.1685 34.2293V69.5547C15.1685 81.1377 22.2275 88.617 33.1518 88.617H70.6351C81.5855 88.617 88.6618 81.1377 88.6618 69.5547V34.2293C88.6618 22.6507 81.5855 15.167 70.6351 15.167H33.1518ZM70.6351 95.117H33.1518C18.5051 95.117 8.66846 84.8427 8.66846 69.5547V34.2293C8.66846 18.9413 18.5051 8.66699 33.1518 8.66699H70.6351C85.3035 8.66699 95.1618 18.9413 95.1618 34.2293V69.5547C95.1618 84.8427 85.3035 95.117 70.6351 95.117Z" fill="#61646B"/>
</g>
<path fill-rule="evenodd" clip-rule="evenodd" d="M22.8863 74.4488C22.0803 74.4488 21.2786 74.1541 20.6503 73.5561C19.3459 72.3254 19.2939 70.2628 20.5289 68.9671L27.1503 61.9774C30.6559 58.2551 36.5709 58.0731 40.3106 61.5831L44.4619 65.7951C45.6189 66.9651 47.4996 66.9868 48.6609 65.8428C49.0986 65.3271 58.5366 53.8654 58.5366 53.8654C60.3306 51.6901 62.8613 50.3468 65.6736 50.0694C68.4903 49.8224 71.2246 50.6414 73.4043 52.4311C73.5906 52.5828 73.7596 52.7301 83.2756 62.5018C84.5279 63.7844 84.5062 65.8428 83.2193 67.0951C81.9366 68.3561 79.8739 68.3171 78.6216 67.0344C78.6216 67.0344 69.7426 57.9214 69.1099 57.3061C68.4383 56.7558 67.3593 56.4351 66.2976 56.5391C65.2186 56.6474 64.2479 57.1631 63.5589 57.9994C53.4883 70.2151 53.3669 70.3321 53.2023 70.4924C49.4843 74.1411 43.4826 74.0804 39.8296 70.3538C39.8296 70.3538 35.7996 66.2631 35.7303 66.1808C34.7293 65.2534 32.9439 65.3141 31.8736 66.4451L25.2436 73.4348C24.6023 74.1108 23.7443 74.4488 22.8863 74.4488Z" fill="#61646B"/>
<path fill-rule="evenodd" clip-rule="evenodd" d="M37.0829 35.2256C34.6866 35.2256 32.7366 37.1756 32.7366 39.5763C32.7366 41.9769 34.6866 43.9313 37.0872 43.9313C39.4879 43.9313 41.4422 41.9769 41.4422 39.5763C41.4422 37.1799 39.4879 35.2299 37.0829 35.2256ZM37.0872 50.4313C31.1029 50.4313 26.2366 45.5606 26.2366 39.5763C26.2366 33.5919 31.1029 28.7256 37.0872 28.7256C43.0759 28.7299 47.9422 33.6006 47.9422 39.5763C47.9422 45.5606 43.0716 50.4313 37.0872 50.4313Z" fill="#61646B"/>
</svg>
