<svg width="720" height="162" viewBox="0 0 720 162" fill="none" xmlns="http://www.w3.org/2000/svg">
<line x1="6.99658" y1="1" x2="713.997" y2="1" stroke="#F6891E" stroke-opacity="0.08" stroke-width="2"/>
<line x1="4.97241" y1="17" x2="716.021" y2="17.0001" stroke="#F6891E" stroke-opacity="0.08" stroke-width="2"/>
<line x1="4.97241" y1="33" x2="716.021" y2="33.0001" stroke="#F6891E" stroke-opacity="0.08" stroke-width="2"/>
<line x1="4.97241" y1="49" x2="716.021" y2="49.0001" stroke="#F6891E" stroke-opacity="0.08" stroke-width="2"/>
<line x1="4.97241" y1="65" x2="716.021" y2="65.0001" stroke="#F6891E" stroke-opacity="0.08" stroke-width="2"/>
<line x1="4.97241" y1="81" x2="716.021" y2="81.0001" stroke="#F6891E" stroke-opacity="0.08" stroke-width="2"/>
<line x1="4.97241" y1="97" x2="716.021" y2="97.0001" stroke="#F6891E" stroke-opacity="0.08" stroke-width="2"/>
<line x1="4.97241" y1="113" x2="716.021" y2="113" stroke="#F6891E" stroke-opacity="0.08" stroke-width="2"/>
<line x1="4.97241" y1="129" x2="716.021" y2="129" stroke="#F6891E" stroke-opacity="0.08" stroke-width="2"/>
<line x1="4.97241" y1="145" x2="716.021" y2="145" stroke="#F6891E" stroke-opacity="0.08" stroke-width="2"/>
<line x1="4.97241" y1="161.001" x2="716.021" y2="161.001" stroke="#F6891E" stroke-opacity="0.08" stroke-width="2"/>
<path d="M710.559 1H719V160.999H710.062" stroke="#F6891E" stroke-opacity="0.5" stroke-width="2"/>
<path d="M719 128.999H715.028" stroke="#F6891E" stroke-opacity="0.5" stroke-width="2"/>
<path d="M719 144.999H715.028" stroke="#F6891E" stroke-opacity="0.5" stroke-width="2"/>
<path d="M719 113H715.028" stroke="#F6891E" stroke-opacity="0.5" stroke-width="2"/>
<path d="M719 97H715.028" stroke="#F6891E" stroke-opacity="0.5" stroke-width="2"/>
<path d="M719 81H715.028" stroke="#F6891E" stroke-opacity="0.5" stroke-width="2"/>
<path d="M719 65H715.028" stroke="#F6891E" stroke-opacity="0.5" stroke-width="2"/>
<path d="M719 49H715.028" stroke="#F6891E" stroke-opacity="0.5" stroke-width="2"/>
<path d="M719 33H715.028" stroke="#F6891E" stroke-opacity="0.5" stroke-width="2"/>
<path d="M719 17H715.028" stroke="#F6891E" stroke-opacity="0.5" stroke-width="2"/>
<path d="M9.44122 1H1V160.999H9.93776" stroke="#F6891E" stroke-opacity="0.5" stroke-width="2"/>
<path d="M1 128.999H4.97234" stroke="#F6891E" stroke-opacity="0.5" stroke-width="2"/>
<path d="M1 144.999H4.97234" stroke="#F6891E" stroke-opacity="0.5" stroke-width="2"/>
<path d="M1 113H4.97234" stroke="#F6891E" stroke-opacity="0.5" stroke-width="2"/>
<path d="M1 97H4.97234" stroke="#F6891E" stroke-opacity="0.5" stroke-width="2"/>
<path d="M1 81H4.97234" stroke="#F6891E" stroke-opacity="0.5" stroke-width="2"/>
<path d="M1 65H4.97234" stroke="#F6891E" stroke-opacity="0.5" stroke-width="2"/>
<path d="M1 49H4.97234" stroke="#F6891E" stroke-opacity="0.5" stroke-width="2"/>
<path d="M1 33H4.97234" stroke="#F6891E" stroke-opacity="0.5" stroke-width="2"/>
<path d="M1 17H4.97234" stroke="#F6891E" stroke-opacity="0.5" stroke-width="2"/>
</svg>
