<svg width="53" height="55" viewBox="0 0 53 55" fill="none" xmlns="http://www.w3.org/2000/svg">
<line y1="-1" x2="30" y2="-1" transform="matrix(-4.37114e-08 1 1 4.37114e-08 53 0)" stroke="#FFF4E9" stroke-opacity="0.7" stroke-width="2"/>
<line y1="-1" x2="12" y2="-1" transform="matrix(0 1 0.999979 -0.00641013 53 34)" stroke="#FFF4E9" stroke-opacity="0.7" stroke-width="2"/>
<line y1="-1" x2="12" y2="-1" transform="matrix(-1 -4.37111e-08 0.00641008 0.999979 21 2)" stroke="#FFF4E9" stroke-opacity="0.7" stroke-width="2"/>
<line y1="-1" x2="4" y2="-1" transform="matrix(0 1 0.999979 -0.00641013 53 50)" stroke="#FFF4E9" stroke-opacity="0.7" stroke-width="2"/>
<line y1="-1" x2="4" y2="-1" transform="matrix(-1 -4.37111e-08 0.00641008 0.999979 5 2)" stroke="#FFF4E9" stroke-opacity="0.7" stroke-width="2"/>
<line y1="-1" x2="28" y2="-1" transform="matrix(1 -8.74228e-08 -8.74228e-08 -1 25 0)" stroke="#FFF4E9" stroke-opacity="0.7" stroke-width="2"/>
</svg>
