<svg width="44" height="45" viewBox="0 0 44 45" fill="none" xmlns="http://www.w3.org/2000/svg">
<path d="M30.3483 14.7253C30.3416 14.7126 30.3305 14.7026 30.3171 14.6972C28.761 13.9944 27.1189 13.4933 25.4319 13.2063C25.4166 13.2035 25.4008 13.2055 25.3867 13.2121C25.3726 13.2187 25.361 13.2294 25.3534 13.2429C25.1298 13.6424 24.9269 14.0527 24.7453 14.4723C22.9268 14.2006 21.077 14.2006 19.2585 14.4723C19.0757 14.0516 18.8695 13.6412 18.6407 13.2429C18.6329 13.2297 18.6212 13.2192 18.6072 13.2127C18.5932 13.2062 18.5775 13.2039 18.5622 13.2063C16.875 13.4927 15.2328 13.9938 13.6769 14.6972C13.6636 14.7028 13.6524 14.7123 13.6448 14.7244C10.5334 19.2982 9.68105 23.7596 10.0992 28.1658C10.1004 28.1766 10.1037 28.187 10.1091 28.1965C10.1145 28.206 10.1217 28.2144 10.1304 28.221C11.9421 29.5415 13.9686 30.5495 16.1233 31.2019C16.1385 31.2063 16.1547 31.2061 16.1697 31.2013C16.1848 31.1964 16.1979 31.1871 16.2075 31.1747C16.6703 30.5549 17.0803 29.8985 17.4335 29.2123C17.4383 29.2029 17.4411 29.1926 17.4416 29.182C17.4421 29.1715 17.4404 29.1609 17.4364 29.1511C17.4325 29.1413 17.4265 29.1324 17.4188 29.125C17.4111 29.1176 17.402 29.1119 17.3919 29.1083C16.7453 28.8648 16.1193 28.5712 15.5197 28.2303C15.5088 28.224 15.4997 28.2151 15.4931 28.2045C15.4865 28.1939 15.4827 28.1819 15.4819 28.1695C15.4812 28.1571 15.4835 28.1446 15.4888 28.1334C15.4941 28.1221 15.5021 28.1122 15.5122 28.1047C15.638 28.0119 15.7639 27.9154 15.884 27.8179C15.8946 27.8093 15.9076 27.8037 15.9213 27.8019C15.935 27.8001 15.9489 27.8021 15.9615 27.8076C19.8893 29.5722 24.1416 29.5722 28.0228 27.8076C28.0354 27.8017 28.0495 27.7995 28.0634 27.8011C28.0773 27.8028 28.0905 27.8083 28.1013 27.817C28.2215 27.9145 28.3473 28.0119 28.4741 28.1047C28.4842 28.1121 28.4923 28.1219 28.4976 28.1332C28.503 28.1444 28.5055 28.1568 28.5048 28.1692C28.5041 28.1816 28.5004 28.1937 28.4939 28.2044C28.4874 28.215 28.4783 28.2239 28.4674 28.2303C27.8693 28.574 27.2427 28.8674 26.5944 29.1074C26.5843 29.1112 26.5752 29.117 26.5675 29.1245C26.5599 29.132 26.554 29.1409 26.5501 29.1508C26.5463 29.1608 26.5446 29.1713 26.5452 29.1819C26.5458 29.1925 26.5486 29.2029 26.5536 29.2123C26.9126 29.8947 27.3221 30.5502 27.7786 31.1736C27.7879 31.1864 27.801 31.196 27.8161 31.201C27.8312 31.2061 27.8476 31.2063 27.8628 31.2017C30.0214 30.5516 32.0514 29.5435 33.8654 28.221C33.8742 28.2147 33.8816 28.2066 33.887 28.1972C33.8923 28.1878 33.8956 28.1774 33.8966 28.1667C34.3972 23.0727 33.0586 18.6479 30.3483 14.7253ZM18.0201 25.4829C16.8375 25.4829 15.8632 24.4147 15.8632 23.1028C15.8632 21.7908 16.8186 20.7225 18.0201 20.7225C19.2309 20.7225 20.1958 21.8001 20.1769 23.1027C20.1769 24.4147 19.2214 25.4829 18.0201 25.4829ZM25.9948 25.4829C24.8123 25.4829 23.8379 24.4147 23.8379 23.1028C23.8379 21.7908 24.7934 20.7225 25.9948 20.7225C27.2057 20.7225 28.1706 21.8001 28.1517 23.1027C28.1517 24.4147 27.2057 25.4829 25.9948 25.4829Z" fill="white"/>
</svg>
