<svg width="456" height="486" viewBox="0 0 456 486" fill="none" xmlns="http://www.w3.org/2000/svg">
<line x1="1" y1="-4.37114e-08" x2="1" y2="30" stroke="#FFF4E9" stroke-opacity="0.7" stroke-width="2"/>
<line y1="-1" x2="12" y2="-1" transform="matrix(0 1 -0.999979 -0.00641013 0 34)" stroke="#FFF4E9" stroke-opacity="0.7" stroke-width="2"/>
<line y1="-1" x2="12" y2="-1" transform="matrix(1 -4.37111e-08 -0.00641008 0.999979 32 2)" stroke="#FFF4E9" stroke-opacity="0.7" stroke-width="2"/>
<line y1="-1" x2="4" y2="-1" transform="matrix(0 1 -0.999979 -0.00641013 0 50)" stroke="#FFF4E9" stroke-opacity="0.7" stroke-width="2"/>
<line y1="-1" x2="4" y2="-1" transform="matrix(1 -4.37111e-08 -0.00641008 0.999979 48 2)" stroke="#FFF4E9" stroke-opacity="0.7" stroke-width="2"/>
<line x1="28" y1="1" x2="-8.74228e-08" y2="0.999998" stroke="#FFF4E9" stroke-opacity="0.7" stroke-width="2"/>
<line y1="-1" x2="30" y2="-1" transform="matrix(4.37114e-08 -1 -1 -4.37114e-08 0 486)" stroke="#FFF4E9" stroke-opacity="0.7" stroke-width="2"/>
<line y1="-1" x2="12" y2="-1" transform="matrix(0 -1 -0.999979 0.00641013 0 452)" stroke="#FFF4E9" stroke-opacity="0.7" stroke-width="2"/>
<line y1="-1" x2="12" y2="-1" transform="matrix(1 4.37111e-08 -0.00641008 -0.999979 32 484)" stroke="#FFF4E9" stroke-opacity="0.7" stroke-width="2"/>
<line y1="-1" x2="4" y2="-1" transform="matrix(0 -1 -0.999979 0.00641013 0 436)" stroke="#FFF4E9" stroke-opacity="0.7" stroke-width="2"/>
<line y1="-1" x2="4" y2="-1" transform="matrix(1 4.37111e-08 -0.00641008 -0.999979 48 484)" stroke="#FFF4E9" stroke-opacity="0.7" stroke-width="2"/>
<line y1="-1" x2="28" y2="-1" transform="matrix(-1 8.74228e-08 8.74228e-08 1 28 486)" stroke="#FFF4E9" stroke-opacity="0.7" stroke-width="2"/>
<line x1="455" y1="486" x2="455" y2="456" stroke="#FFF4E9" stroke-opacity="0.7" stroke-width="2"/>
<line y1="-1" x2="12" y2="-1" transform="matrix(0 -1 0.999979 0.00641013 456 452)" stroke="#FFF4E9" stroke-opacity="0.7" stroke-width="2"/>
<line y1="-1" x2="12" y2="-1" transform="matrix(-1 4.37111e-08 0.00641008 -0.999979 424 484)" stroke="#FFF4E9" stroke-opacity="0.7" stroke-width="2"/>
<line y1="-1" x2="4" y2="-1" transform="matrix(0 -1 0.999979 0.00641013 456 436)" stroke="#FFF4E9" stroke-opacity="0.7" stroke-width="2"/>
<line y1="-1" x2="4" y2="-1" transform="matrix(-1 4.37111e-08 0.00641008 -0.999979 408 484)" stroke="#FFF4E9" stroke-opacity="0.7" stroke-width="2"/>
<line x1="428" y1="485" x2="456" y2="485" stroke="#FFF4E9" stroke-opacity="0.7" stroke-width="2"/>
<line y1="-1" x2="30" y2="-1" transform="matrix(-4.37114e-08 1 1 4.37114e-08 456 0)" stroke="#FFF4E9" stroke-opacity="0.7" stroke-width="2"/>
<line y1="-1" x2="12" y2="-1" transform="matrix(0 1 0.999979 -0.00641013 456 34)" stroke="#FFF4E9" stroke-opacity="0.7" stroke-width="2"/>
<line y1="-1" x2="12" y2="-1" transform="matrix(-1 -4.37111e-08 0.00641008 0.999979 424 2)" stroke="#FFF4E9" stroke-opacity="0.7" stroke-width="2"/>
<line y1="-1" x2="4" y2="-1" transform="matrix(0 1 0.999979 -0.00641013 456 50)" stroke="#FFF4E9" stroke-opacity="0.7" stroke-width="2"/>
<line y1="-1" x2="4" y2="-1" transform="matrix(-1 -4.37111e-08 0.00641008 0.999979 408 2)" stroke="#FFF4E9" stroke-opacity="0.7" stroke-width="2"/>
<line y1="-1" x2="28" y2="-1" transform="matrix(1 -8.74228e-08 -8.74228e-08 -1 428 0)" stroke="#FFF4E9" stroke-opacity="0.7" stroke-width="2"/>
</svg>
