<svg width="44" height="45" viewBox="0 0 44 45" fill="none" xmlns="http://www.w3.org/2000/svg">
<path d="M33.4985 16.365C33.2225 15.318 32.4092 14.4934 31.3766 14.2136C29.505 13.7051 22 13.7051 22 13.7051C22 13.7051 14.495 13.7051 12.6234 14.2136C11.5908 14.4935 10.7775 15.318 10.5015 16.365C10 18.2628 10 22.2223 10 22.2223C10 22.2223 10 26.1817 10.5015 28.0795C10.7775 29.1265 11.5908 29.9167 12.6234 30.1966C14.495 30.7051 22 30.7051 22 30.7051C22 30.7051 29.505 30.7051 31.3766 30.1966C32.4092 29.9167 33.2225 29.1265 33.4985 28.0795C34 26.1817 34 22.2223 34 22.2223C34 22.2223 34 18.2628 33.4985 16.365ZM19.5454 25.8172V18.6273L25.8181 22.2223L19.5454 25.8172Z" fill="white"/>
</svg>
